<?xml version="1.0" encoding="UTF-8" standalone="no"?>
<svg
   xmlns:dc="http://purl.org/dc/elements/1.1/"
   xmlns:cc="http://creativecommons.org/ns#"
   xmlns:rdf="http://www.w3.org/1999/02/22-rdf-syntax-ns#"
   xmlns:svg="http://www.w3.org/2000/svg"
   xmlns="http://www.w3.org/2000/svg"
   xmlns:sodipodi="http://sodipodi.sourceforge.net/DTD/sodipodi-0.dtd"
   xmlns:inkscape="http://www.inkscape.org/namespaces/inkscape"
   version="1.1"
   x="0px"
   y="0px"
   viewBox="0 0 80 80"
   enable-background="new 0 0 100 100"
   xml:space="preserve"
   id="svg4890"
   inkscape:version="0.91 r13725"
   sodipodi:docname="briefcase.svg"
   width="80"
   height="80"><metadata
     id="metadata4914"><rdf:RDF><cc:Work
         rdf:about=""><dc:format>image/svg+xml</dc:format><dc:type
           rdf:resource="http://purl.org/dc/dcmitype/StillImage" /><dc:title></dc:title></cc:Work></rdf:RDF></metadata><defs
     id="defs4912" /><sodipodi:namedview
     pagecolor="#ffffff"
     bordercolor="#666666"
     borderopacity="1"
     objecttolerance="10"
     gridtolerance="10"
     guidetolerance="10"
     inkscape:pageopacity="0"
     inkscape:pageshadow="2"
     inkscape:window-width="793"
     inkscape:window-height="575"
     id="namedview4910"
     showgrid="false"
     inkscape:zoom="1.888"
     inkscape:cx="63.338835"
     inkscape:cy="62.5"
     inkscape:window-x="0"
     inkscape:window-y="0"
     inkscape:window-maximized="0"
     inkscape:current-layer="svg4890" /><path
     d="m 63.28528,70.127119 -45.108696,0 c -4.929106,0 -8.9392958,-3.877332 -8.9392958,-8.6447 l 0,-30.248335 c 0,-4.766691 4.0101898,-8.645376 8.9392958,-8.645376 l 45.107997,0 c 4.929805,0 8.939995,3.878685 8.939995,8.645376 l 0,30.248335 c 0,4.767368 -4.01019,8.6447 -8.939296,8.6447 z M 18.176584,24.596021 c -3.784136,0 -6.863515,2.977829 -6.863515,6.638063 l 0,30.248335 c 0,3.660234 3.078678,6.63874 6.863515,6.63874 l 45.107997,0 c 3.784836,0 6.863514,-2.978506 6.863514,-6.63874 l 0,-30.248335 c 0,-3.660234 -3.077978,-6.638063 -6.863514,-6.638063 l -45.107997,0 z"
     id="path4892"
     style="fill:#daecf3;fill-opacity:1"
     inkscape:connector-curvature="0" /><path
     d="m 54.51465,24.596021 -4.871716,0 c -0.573884,0 -1.038591,-0.449752 -1.038591,-1.003657 0,-4.427855 -3.679857,-8.313304 -7.873411,-8.313304 -4.193553,0 -7.873411,3.885449 -7.873411,8.313304 0,0.554581 -0.464706,1.003657 -1.038591,1.003657 l -4.873116,0 c -0.572484,0 -1.037191,-0.449752 -1.037191,-1.003657 -6.99e-4,-7.904131 6.648658,-14.333889 14.822309,-14.333889 8.173651,0 14.823009,6.429758 14.823009,14.333212 0,0.554582 -0.464706,1.004334 -1.039291,1.004334 z m -3.885616,-2.007313 2.806434,0 C 52.905675,16.259722 47.409684,11.265111 40.730932,11.265111 c -6.678752,0 -12.174743,4.994611 -12.703836,11.323597 l 2.806433,0 c 0.520696,-5.067653 4.922807,-9.316285 9.897403,-9.316285 4.974596,0 9.376708,4.248632 9.898102,9.316285 z"
     id="path4894"
     style="fill:#daecf3;fill-opacity:1"
     inkscape:connector-curvature="0" /><path
     d="m 27.5148,56.65486 -8.932998,0 c -0.573184,0 -1.037891,-0.449077 -1.037891,-1.003657 l 0,-13.080672 c 0,-0.554581 0.464707,-1.00298 1.037891,-1.00298 l 8.933697,0 c 0.573185,0 1.038591,0.449076 1.038591,1.00298 l 0,13.080672 c 0,0.55458 -0.465406,1.003657 -1.03929,1.003657 z m -7.894407,-2.007313 6.856516,0 0,-11.074036 -6.856516,0 0,11.074036 z"
     id="path4896"
     style="fill:#daecf3;fill-opacity:1"
     inkscape:connector-curvature="0" /><ellipse
     cx="23.048302"
     cy="51.318035"
     id="circle4898"
     style="fill:#daecf3;fill-opacity:1"
     rx="1.6726625"
     ry="1.6164007" /><path
     d="m 62.880062,56.65486 -8.932997,0 c -0.573184,0 -1.037891,-0.449077 -1.037891,-1.003657 l 0,-13.080672 c 0,-0.554581 0.464707,-1.00298 1.037891,-1.00298 l 8.933697,0 c 0.573884,0 1.03789,0.449076 1.03789,1.00298 l 0,13.080672 c 0,0.55458 -0.464006,1.003657 -1.03859,1.003657 z m -7.895107,-2.007313 6.857916,0 0,-11.074036 -6.857916,0 0,11.074036 z"
     id="path4900"
     style="fill:#daecf3;fill-opacity:1"
     inkscape:connector-curvature="0" /><ellipse
     cx="58.413559"
     cy="51.318035"
     id="circle4902"
     style="fill:#daecf3;fill-opacity:1"
     rx="1.6726625"
     ry="1.6164007" /><path
     d="m 40.730932,50.114186 c -4.886414,0 -9.357812,-0.135941 -13.288918,-0.405116 -0.54379,-0.03719 -0.965105,-0.474099 -0.965105,-1.000274 l 0,-5.135285 -6.856516,0 0,4.153271 c 0,0.29555 -0.135073,0.576223 -0.368826,0.766945 -0.233753,0.190721 -0.54239,0.271879 -0.84333,0.222508 C 11.614708,47.598958 9.8384669,46.200331 9.5522247,45.931157 9.3506653,45.742464 9.2372882,45.482758 9.2372882,45.210878 l 0,-13.976794 c 0,-4.766691 4.0101898,-8.645376 8.9392958,-8.645376 l 45.107997,0 c 4.929805,0 8.939995,3.878685 8.939995,8.645376 l 0,13.97747 c 0,0.27188 -0.113377,0.531586 -0.314937,0.720279 -0.286241,0.269175 -2.061783,1.667801 -8.853912,2.785078 -0.302339,0.04937 -0.610978,-0.03178 -0.84473,-0.222508 -0.233753,-0.190721 -0.367426,-0.471394 -0.367426,-0.766945 l 0,-4.153271 -6.857915,0 0,5.135285 c 0,0.526852 -0.421316,0.963754 -0.965106,1.000275 -3.931806,0.268498 -8.403204,0.404439 -13.289618,0.404439 z M 28.55409,47.770742 c 3.644864,0.223862 7.736238,0.336807 12.176842,0.336807 4.440604,0 8.531978,-0.112945 12.177543,-0.336807 l 0,-5.200211 c 0,-0.554581 0.464705,-1.00298 1.03789,-1.00298 l 8.933697,0 c 0.573885,0 1.03789,0.449076 1.03789,1.00298 l 0,3.955109 c 3.81983,-0.713515 5.566677,-1.483165 6.229443,-1.846348 l 0,-13.445208 c 0,-3.660234 -3.077978,-6.638063 -6.863515,-6.638063 l -45.107296,0 c -3.784136,0 -6.863515,2.977829 -6.863515,6.638063 l 0,13.445208 c 0.662767,0.363183 2.409614,1.132833 6.229443,1.846348 l 0,-3.955109 c 0,-0.554581 0.464706,-1.00298 1.03789,-1.00298 l 8.933697,0 c 0.573185,0 1.038591,0.449076 1.038591,1.00298 l 0,5.200211 z"
     id="path4904"
     style="fill:#daecf3;fill-opacity:1"
     inkscape:connector-curvature="0" /></svg>