<?xml version="1.0" encoding="UTF-8" standalone="no"?>
<svg
   xmlns:dc="http://purl.org/dc/elements/1.1/"
   xmlns:cc="http://creativecommons.org/ns#"
   xmlns:rdf="http://www.w3.org/1999/02/22-rdf-syntax-ns#"
   xmlns:svg="http://www.w3.org/2000/svg"
   xmlns="http://www.w3.org/2000/svg"
   xmlns:sodipodi="http://sodipodi.sourceforge.net/DTD/sodipodi-0.dtd"
   xmlns:inkscape="http://www.inkscape.org/namespaces/inkscape"
   version="1.1"
   x="0px"
   y="0px"
   viewBox="0 0 160 160"
   enable-background="new 0 0 100 100"
   xml:space="preserve"
   id="svg3719"
   inkscape:version="0.91 r13725"
   sodipodi:docname="frame_160.svg"
   width="160"
   height="160"><metadata
     id="metadata3735"><rdf:RDF><cc:Work
         rdf:about=""><dc:format>image/svg+xml</dc:format><dc:type
           rdf:resource="http://purl.org/dc/dcmitype/StillImage" /><dc:title></dc:title></cc:Work></rdf:RDF></metadata><defs
     id="defs3733" /><sodipodi:namedview
     pagecolor="#ffffff"
     bordercolor="#666666"
     borderopacity="1"
     objecttolerance="10"
     gridtolerance="10"
     guidetolerance="10"
     inkscape:pageopacity="0"
     inkscape:pageshadow="2"
     inkscape:window-width="1084"
     inkscape:window-height="745"
     id="namedview3731"
     showgrid="false"
     inkscape:zoom="2.73"
     inkscape:cx="50"
     inkscape:cy="62.5"
     inkscape:window-x="272"
     inkscape:window-y="92"
     inkscape:window-maximized="0"
     inkscape:current-layer="svg3719" /><g
     id="g3721"
     transform="matrix(1.8335296,0,0,1.6873276,-11.610958,-3.7546608)"><g
       id="g3723"><path
       fill="#489d88"
         d="m 14.065,47.486 c -0.36,0 -0.652,0.292 -0.652,0.652 l 0,2.234 c 0,0.36 0.292,0.652 0.652,0.652 0.36,0 0.652,-0.292 0.652,-0.652 l 0,-2.234 c 0,-0.36 -0.292,-0.652 -0.652,-0.652 z m 0,-22.715 c -0.36,0 -0.652,0.292 -0.652,0.652 l 0,19.923 c 0,0.36 0.292,0.652 0.652,0.652 0.36,0 0.652,-0.292 0.652,-0.652 l 0,-19.923 c 0,-0.36 -0.292,-0.652 -0.652,-0.652 z m 1.489,48.41 c -0.36,0 -0.652,0.292 -0.652,0.652 l 0,2.234 c 0,0.36 0.292,0.652 0.652,0.652 0.36,0 0.652,-0.292 0.652,-0.652 l 0,-2.234 c 0,-0.36 -0.292,-0.652 -0.652,-0.652 z m 0,5.027 c -0.36,0 -0.652,0.292 -0.652,0.652 l 0,2.793 c 0,0.36 0.292,0.652 0.652,0.652 0.36,0 0.652,-0.292 0.652,-0.652 l 0,-2.793 c 0,-0.36 -0.292,-0.652 -0.652,-0.652 z M 14.065,17.137 c -0.36,0 -0.652,0.292 -0.652,0.652 l 0,4.282 c 0,0.36 0.292,0.652 0.652,0.652 0.36,0 0.652,-0.292 0.652,-0.652 l 0,-4.282 c 0,-0.36 -0.292,-0.652 -0.652,-0.652 z m 0,35.377 c -0.36,0 -0.652,0.292 -0.652,0.652 l 0,0.745 c 0,0.36 0.292,0.652 0.652,0.652 0.36,0 0.652,-0.292 0.652,-0.652 l 0,-0.745 c 0,-0.361 -0.292,-0.652 -0.652,-0.652 z m 43.29,-39.008 11.73,0 c 0.36,0 0.652,-0.292 0.652,-0.652 0,-0.36 -0.292,-0.652 -0.652,-0.652 l -11.73,0 c -0.36,0 -0.652,0.292 -0.652,0.652 0,0.361 0.292,0.652 0.652,0.652 z M 15.554,58.658 c -0.36,0 -0.652,0.292 -0.652,0.652 l 0,11.73 c 0,0.36 0.292,0.652 0.652,0.652 0.36,0 0.652,-0.292 0.652,-0.652 l 0,-11.73 c 0,-0.36 -0.292,-0.652 -0.652,-0.652 z m 61.351,-45.152 0.745,0 c 0.36,0 0.652,-0.292 0.652,-0.652 0,-0.36 -0.292,-0.652 -0.652,-0.652 l -0.745,0 c -0.36,0 -0.652,0.292 -0.652,0.652 0,0.361 0.292,0.652 0.652,0.652 z m -28.301,-2.42 4.655,0 c 0.36,0 0.652,-0.292 0.652,-0.652 0,-0.36 -0.292,-0.652 -0.652,-0.652 l -4.655,0 c -0.36,0 -0.652,0.292 -0.652,0.652 0,0.36 0.292,0.652 0.652,0.652 z m -21.226,0 9.682,0 c 0.36,0 0.652,-0.292 0.652,-0.652 0,-0.36 -0.292,-0.652 -0.652,-0.652 l -9.682,0 c -0.36,0 -0.652,0.292 -0.652,0.652 0,0.36 0.292,0.652 0.652,0.652 z m 14.15,0 2.42,0 c 0.36,0 0.652,-0.292 0.652,-0.652 0,-0.36 -0.292,-0.652 -0.652,-0.652 l -2.42,0 c -0.36,0 -0.652,0.292 -0.652,0.652 0,0.36 0.292,0.652 0.652,0.652 z m -19.922,0 c 0.36,0 0.652,-0.292 0.652,-0.652 0,-0.36 -0.292,-0.652 -0.652,-0.652 l -1.303,0 c -0.36,0 -0.652,0.292 -0.652,0.652 0,0.36 0.292,0.652 0.652,0.652 l 1.303,0 z m 50.272,2.42 2.234,0 c 0.36,0 0.652,-0.292 0.652,-0.652 0,-0.36 -0.292,-0.652 -0.652,-0.652 l -2.234,0 c -0.36,0 -0.652,0.292 -0.652,0.652 0,0.361 0.292,0.652 0.652,0.652 z m 11.45,38.449 c 0.36,0 0.652,-0.292 0.652,-0.652 l 0,-2.234 c 0,-0.36 -0.292,-0.652 -0.652,-0.652 -0.36,0 -0.652,0.292 -0.652,0.652 l 0,2.234 c 0.001,0.36 0.293,0.652 0.652,0.652 z m 0,-5.027 c 0.36,0 0.652,-0.292 0.652,-0.652 l 0,-2.607 c 0,-0.36 -0.292,-0.652 -0.652,-0.652 -0.36,0 -0.652,0.292 -0.652,0.652 l 0,2.607 c 0.001,0.36 0.293,0.652 0.652,0.652 z m 2.607,-8.751 c 0.36,0 0.652,-0.292 0.652,-0.652 l 0,-0.745 c 0,-0.36 -0.292,-0.652 -0.652,-0.652 -0.36,0 -0.652,0.292 -0.652,0.652 l 0,0.745 c 0,0.36 0.292,0.652 0.652,0.652 z m -2.607,44.127 c 0.36,0 0.652,-0.292 0.652,-0.652 l 0,-4.282 c 0,-0.36 -0.292,-0.652 -0.652,-0.652 -0.36,0 -0.652,0.292 -0.652,0.652 l 0,4.282 c 0.001,0.361 0.293,0.652 0.652,0.652 z m 0,-7.634 c 0.36,0 0.652,-0.292 0.652,-0.652 l 0,-19.922 c 0,-0.36 -0.292,-0.652 -0.652,-0.652 -0.36,0 -0.652,0.292 -0.652,0.652 l 0,19.923 c 0.001,0.36 0.293,0.651 0.652,0.651 z M 9.131,5.5 l 0,89 81.739,0 0,-89 -81.739,0 z m 77.288,2.607 -7.261,7.261 -59.092,0 -6.57,-7.261 72.923,0 z m -8.025,9.868 0,65.167 -57.906,0 0,-65.167 57.906,0 z m -66.657,-7.65 6.144,6.791 0,66.658 -6.144,6.144 0,-79.593 z m 1.975,81.568 6.144,-6.144 59.206,0 6.929,6.144 -72.279,0 z m 74.551,-1.719 -7.262,-6.439 0,-66.524 7.262,-7.262 0,80.225 z m -2.328,-56.28 c 0.36,0 0.652,-0.292 0.652,-0.652 l 0,-5.772 c 0,-0.36 -0.292,-0.652 -0.652,-0.652 -0.36,0 -0.652,0.292 -0.652,0.652 l 0,5.772 c 0,0.361 0.292,0.652 0.652,0.652 z m -8.937,55.672 c 0,0.36 0.292,0.652 0.652,0.652 l 2.234,0 c 0.36,0 0.652,-0.292 0.652,-0.652 0,-0.36 -0.292,-0.652 -0.652,-0.652 l -2.234,0 c -0.36,0 -0.652,0.292 -0.652,0.652 z m -22.622,-2.141 -2.234,0 c -0.36,0 -0.652,0.292 -0.652,0.652 0,0.36 0.292,0.652 0.652,0.652 l 2.234,0 c 0.36,0 0.652,-0.292 0.652,-0.652 -10e-4,-0.361 -0.293,-0.652 -0.652,-0.652 z m -5.028,0 -19.922,0 c -0.36,0 -0.652,0.292 -0.652,0.652 0,0.36 0.292,0.652 0.652,0.652 l 19.923,0 c 0.36,0 0.652,-0.292 0.652,-0.652 C 50,87.716 49.708,87.425 49.348,87.425 Z M 85.935,25.516 c 0.36,0 0.652,-0.292 0.652,-0.652 l 0,-1.49 c 0,-0.36 -0.292,-0.652 -0.652,-0.652 -0.36,0 -0.652,0.292 -0.652,0.652 l 0,1.49 c 0,0.36 0.292,0.652 0.652,0.652 z m -28.022,61.909 -0.745,0 c -0.36,0 -0.652,0.292 -0.652,0.652 0,0.36 0.292,0.652 0.652,0.652 l 0.745,0 c 0.36,0 0.652,-0.292 0.652,-0.652 0,-0.361 -0.292,-0.652 -0.652,-0.652 z M 85.935,21.233 c 0.36,0 0.652,-0.292 0.652,-0.652 l 0,-2.793 c 0,-0.36 -0.292,-0.652 -0.652,-0.652 -0.36,0 -0.652,0.292 -0.652,0.652 l 0,2.793 c 0,0.361 0.292,0.652 0.652,0.652 z m -59.861,66.192 -4.282,0 c -0.36,0 -0.652,0.292 -0.652,0.652 0,0.36 0.292,0.652 0.652,0.652 l 4.282,0 c 0.36,0 0.652,-0.292 0.652,-0.652 0,-0.361 -0.292,-0.652 -0.652,-0.652 z m 48.783,1.489 -9.31,0 c -0.36,0 -0.652,0.292 -0.652,0.652 0,0.36 0.292,0.652 0.652,0.652 l 9.31,0 c 0.36,0 0.652,-0.292 0.652,-0.652 -0.001,-0.36 -0.292,-0.652 -0.652,-0.652 z"
         id="path3725"
         inkscape:connector-curvature="0" /></g></g></svg>
