<?xml version="1.0" encoding="UTF-8" standalone="no"?>
<svg
   xmlns:dc="http://purl.org/dc/elements/1.1/"
   xmlns:cc="http://creativecommons.org/ns#"
   xmlns:rdf="http://www.w3.org/1999/02/22-rdf-syntax-ns#"
   xmlns:svg="http://www.w3.org/2000/svg"
   xmlns="http://www.w3.org/2000/svg"
   xmlns:sodipodi="http://sodipodi.sourceforge.net/DTD/sodipodi-0.dtd"
   xmlns:inkscape="http://www.inkscape.org/namespaces/inkscape"
   viewBox="0 0 80 80"
   version="1.1"
   x="0px"
   y="0px"
   id="svg6629"
   inkscape:version="0.91 r13725"
   sodipodi:docname="git.svg"
   width="80"
   height="80">
  <metadata
     id="metadata6641">
    <rdf:RDF>
      <cc:Work
         rdf:about="">
        <dc:format>image/svg+xml</dc:format>
        <dc:type
           rdf:resource="http://purl.org/dc/dcmitype/StillImage" />
        <dc:title></dc:title>
      </cc:Work>
    </rdf:RDF>
  </metadata>
  <defs
     id="defs6639" />
  <sodipodi:namedview
     pagecolor="#ffffff"
     bordercolor="#666666"
     borderopacity="1"
     objecttolerance="10"
     gridtolerance="10"
     guidetolerance="10"
     inkscape:pageopacity="0"
     inkscape:pageshadow="2"
     inkscape:window-width="815"
     inkscape:window-height="547"
     id="namedview6637"
     showgrid="false"
     borderlayer="false"
     inkscape:zoom="1.888"
     inkscape:cx="-26.800847"
     inkscape:cy="62.5"
     inkscape:window-x="85"
     inkscape:window-y="53"
     inkscape:window-maximized="0"
     inkscape:current-layer="svg6629" />
  <path
     style="color:#000000;text-indent:0;text-decoration:none;text-decoration-line:none;text-decoration-style:solid;text-decoration-color:#000000;text-transform:none;block-progression:tb;white-space:normal;isolation:auto;mix-blend-mode:normal;solid-color:#000000;color-rendering:auto;image-rendering:auto;shape-rendering:auto;fill:#daecf3;fill-opacity:1"
     d="m 26.955773,11.376801 c -3.115378,0 -5.6734,2.306946 -5.6734,5.116541 0,2.336826 1.772446,4.320134 4.160493,4.92334 l 0,41.318458 c -2.388047,0.603234 -4.160493,2.586446 -4.160493,4.923342 0,2.809595 2.558022,5.116541 5.6734,5.116541 3.115377,0 5.673401,-2.306946 5.673401,-5.116541 0,-2.317179 -1.74234,-4.287457 -4.099902,-4.908674 0.26944,-3.455507 1.544527,-4.895301 3.374463,-5.744102 2.027446,-0.94042 5.142143,-1.019283 8.449584,-1.019283 3.307365,0 6.805432,0.08366 9.752953,-1.28316 2.621338,-1.215691 4.447945,-3.719453 4.781012,-7.687091 2.424508,-0.581056 4.232885,-2.580307 4.232885,-4.94067 0,-2.336827 -1.772446,-4.320134 -4.160493,-4.923341 l 0,-2.944671 c 2.388047,-0.603234 4.160493,-2.586446 4.160493,-4.923341 0,-2.336828 -1.772446,-4.320135 -4.160493,-4.923341 l 0,-2.944672 c 2.388047,-0.603234 4.160493,-2.586445 4.160493,-4.92334 0,-2.809595 -2.558022,-5.116541 -5.673399,-5.116541 -2.586919,0 -4.783433,1.593154 -5.456223,3.741488 l -8.440506,0.02132 0,-1.60025 -2.836701,1.476361 -2.8367,1.477657 2.8367,1.477658 2.836701,1.476361 0,-1.578965 8.434455,-0.02132 c 0.530637,1.722909 2.040381,3.087388 3.949216,3.569571 l 0,2.944672 c -2.388048,0.603233 -4.160495,2.586446 -4.160495,4.923341 0,2.336827 1.772447,4.320134 4.160495,4.923341 l 0,2.944671 c -2.388048,0.603234 -4.160495,2.586446 -4.160495,4.923341 0,2.318203 1.743777,4.289708 4.102852,4.910038 -0.238842,3.185695 -1.434461,4.492801 -3.152896,5.289754 -1.963905,0.910744 -5.058178,0.982033 -8.369401,0.982033 -3.311601,0 -6.842498,-0.06645 -9.832381,1.320409 -0.749856,0.347823 -1.438925,0.796612 -2.052182,1.352405 l 0,-34.514141 c 2.388048,-0.603234 4.160494,-2.586446 4.160494,-4.923341 0,-2.809595 -2.558022,-5.116541 -5.6734,-5.116541 z m 0,2.728821 c 1.480152,0 2.647587,1.052848 2.647587,2.38772 0,1.334871 -1.167435,2.387718 -2.647587,2.387718 -1.480153,0 -2.647586,-1.052847 -2.647586,-2.387718 0,-1.334872 1.167433,-2.38772 2.647586,-2.38772 z m 26.490997,0 c 1.480152,0 2.647587,1.052848 2.647587,2.38772 0,1.334871 -1.167435,2.387718 -2.647587,2.387718 -1.480153,0 -2.647587,-1.052847 -2.647587,-2.387718 0,-1.334872 1.167434,-2.38772 2.647587,-2.38772 z m 0,12.791354 c 1.480152,0 2.647587,1.052846 2.647587,2.387718 0,1.334872 -1.167435,2.38772 -2.647587,2.38772 -1.480153,0 -2.647587,-1.052848 -2.647587,-2.38772 0,-1.334872 1.167434,-2.387718 2.647587,-2.387718 z m 0,12.791352 c 1.480152,0 2.647587,1.052848 2.647587,2.38772 0,1.334871 -1.167435,2.387719 -2.647587,2.387719 -1.480153,0 -2.647587,-1.052848 -2.647587,-2.387719 0,-1.334872 1.167434,-2.38772 2.647587,-2.38772 z M 26.955773,65.271036 c 1.480152,0 2.647587,1.052848 2.647587,2.387718 0,1.334872 -1.167435,2.38772 -2.647587,2.38772 -1.480153,0 -2.647586,-1.052848 -2.647586,-2.38772 0,-1.33487 1.167433,-2.387718 2.647586,-2.387718 z"
     id="path6631"
     inkscape:connector-curvature="0" />
</svg>
