<?xml version="1.0" encoding="UTF-8" standalone="no"?>
<svg
   xmlns:dc="http://purl.org/dc/elements/1.1/"
   xmlns:cc="http://creativecommons.org/ns#"
   xmlns:rdf="http://www.w3.org/1999/02/22-rdf-syntax-ns#"
   xmlns:svg="http://www.w3.org/2000/svg"
   xmlns="http://www.w3.org/2000/svg"
   xmlns:sodipodi="http://sodipodi.sourceforge.net/DTD/sodipodi-0.dtd"
   xmlns:inkscape="http://www.inkscape.org/namespaces/inkscape"
   version="1.1"
   x="0px"
   y="0px"
   viewBox="0 0 50 100"
   enable-background="new 0 0 100 100"
   xml:space="preserve"
   id="svg6480"
   inkscape:version="0.91 r13725"
   sodipodi:docname="plant.svg"
   width="50"
   height="100"><metadata
     id="metadata6550"><rdf:RDF><cc:Work
         rdf:about=""><dc:format>image/svg+xml</dc:format><dc:type
           rdf:resource="http://purl.org/dc/dcmitype/StillImage" /><dc:title></dc:title></cc:Work></rdf:RDF></metadata><defs
     id="defs6548" /><sodipodi:namedview
     pagecolor="#ffffff"
     bordercolor="#666666"
     borderopacity="1"
     objecttolerance="10"
     gridtolerance="10"
     guidetolerance="10"
     inkscape:pageopacity="0"
     inkscape:pageshadow="2"
     inkscape:window-width="640"
     inkscape:window-height="480"
     id="namedview6546"
     showgrid="false"
     inkscape:zoom="1.888"
     inkscape:cx="28.813559"
     inkscape:cy="62.5"
     inkscape:window-x="0"
     inkscape:window-y="0"
     inkscape:window-maximized="0"
     inkscape:current-layer="svg6480" /><g
     id="g6482"
     transform="translate(0,-25)"><path
      fill="#1aa6b7"
       d="m -571.647,69.525 c -0.175,-0.322 -0.512,-0.522 -0.878,-0.522 -10e-4,0 -0.003,0 -0.005,0 -0.368,0.002 -0.706,0.206 -0.878,0.531 -0.127,0.24 -3.125,5.911 -3.816,9.729 -0.499,2.754 0.292,4.403 1.042,5.302 0.893,1.069 2.226,1.682 3.658,1.682 1.452,0 2.801,-0.625 3.701,-1.716 0.745,-0.903 1.522,-2.552 0.996,-5.28 -0.805,-4.158 -3.697,-9.501 -3.82,-9.726 z m 1.28,13.733 c -0.511,0.619 -1.318,0.989 -2.159,0.989 -0.837,0 -1.611,-0.352 -2.123,-0.964 -0.684,-0.818 -0.894,-2.085 -0.609,-3.664 0.414,-2.284 1.808,-5.445 2.739,-7.39 0.906,1.877 2.248,4.925 2.726,7.401 0.301,1.554 0.102,2.808 -0.574,3.628 z"
       id="path6484"
       inkscape:connector-curvature="0" /><path
       fill="#1aa6b7"
       d="m -523.468,29.941 -1.912,0 c -1.751,0 -3.176,1.424 -3.176,3.175 l 0,5.793 -6.927,0 c -1.145,-2.499 -3.051,-4.553 -5.427,-5.878 0.502,-0.561 0.805,-1.304 0.805,-2.121 l 0,-1.188 c 0,-1.851 -1.506,-3.357 -3.356,-3.357 l -0.514,0 0,-5.256 4.32,0 c 1.75,0 3.175,-1.424 3.175,-3.175 l 0,-0.824 c 0,-1.851 -1.506,-3.357 -3.356,-3.357 l -14.674,0 c -1.851,0 -3.356,1.506 -3.356,3.357 l 0,0.825 c 0,1.751 1.424,3.175 3.175,3.175 l 4.32,0 0,5.256 -0.513,0 c -1.851,0 -3.357,1.506 -3.357,3.357 l 0,1.188 c 0,0.817 0.303,1.56 0.805,2.121 -2.376,1.326 -4.283,3.379 -5.427,5.878 l -3.599,0 c -7.948,0 -14.414,6.466 -14.414,14.414 l 0,1.531 c -1.694,0.192 -3.014,1.614 -3.014,3.335 l 0,1.913 c 0,1.751 1.425,3.175 3.176,3.175 l 9.841,0 c 1.751,0 3.176,-1.424 3.176,-3.175 l 0,-1.913 c 0,-1.52 -1.03,-2.807 -2.478,-3.219 l 0,-1.647 c 0,-2.047 1.666,-3.713 3.713,-3.713 l 3.599,0 c 2.091,4.582 6.608,7.506 11.69,7.506 5.082,0 9.599,-2.924 11.69,-7.506 l 6.927,0 0,5.793 c 0,1.75 1.425,3.175 3.176,3.175 l 1.912,0 c 1.851,0 3.357,-1.506 3.357,-3.356 l 0,-21.924 c 10e-4,-1.851 -1.506,-3.358 -3.357,-3.358 z m 1.358,25.282 c 0,0.748 -0.609,1.356 -1.357,1.356 l -1.912,0 c -0.648,0 -1.176,-0.527 -1.176,-1.175 l 0,-6.793 c 0,-0.552 -0.448,-1 -1,-1 l -8.588,0 c -0.411,0 -0.779,0.251 -0.93,0.633 -1.648,4.175 -5.613,6.873 -10.099,6.873 -4.486,0 -8.451,-2.698 -10.099,-6.873 -0.151,-0.382 -0.52,-0.633 -0.93,-0.633 l -4.26,0 c -3.15,0 -5.713,2.563 -5.713,5.713 l 0,2.509 c 0,0.552 0.52,1 1.072,1 0.775,0 1.405,0.609 1.405,1.357 l 0,1.913 c 0,0.648 -0.527,1.175 -1.176,1.175 l -9.841,0 c -0.648,0 -1.176,-0.527 -1.176,-1.175 l 0,-1.913 c 0,-0.748 0.63,-1.357 1.405,-1.357 l 0.608,0 c 0.552,0 1,-0.448 1,-1 l 0,-2.509 c 0,-6.845 5.569,-12.414 12.414,-12.414 l 4.26,0 c 0.411,0 0.779,-0.251 0.93,-0.633 1.154,-2.924 3.514,-5.203 6.475,-6.251 0.454,-0.161 0.729,-0.622 0.654,-1.097 -0.074,-0.476 -0.477,-0.831 -0.958,-0.845 -0.64,-0.019 -1.14,-0.534 -1.14,-1.172 l 0,-1.188 c 0,-0.749 0.609,-1.357 1.357,-1.357 l 1.513,0 c 0.552,0 1,-0.448 1,-1 l 0,-7.256 c 0,-0.552 -0.448,-1 -1,-1 l -5.32,0 c -0.648,0 -1.175,-0.527 -1.175,-1.175 l 0,-0.826 c 0,-0.748 0.608,-1.357 1.356,-1.357 l 14.674,0 c 0.748,0 1.356,0.609 1.356,1.357 l 0,0.825 c 0,0.648 -0.527,1.175 -1.175,1.175 l -5.32,0 c -0.552,0 -1,0.448 -1,1 l 0,7.256 c 0,0.552 0.448,1 1,1 l 1.514,0 c 0.748,0 1.356,0.609 1.356,1.357 l 0,1.188 c 0,0.638 -0.501,1.153 -1.14,1.172 -0.481,0.014 -0.884,0.37 -0.958,0.845 -0.075,0.476 0.2,0.937 0.654,1.097 2.96,1.049 5.32,3.327 6.475,6.251 0.151,0.382 0.52,0.633 0.93,0.633 l 8.588,0 c 0.552,0 1,-0.448 1,-1 l 0,-6.793 c 0,-0.648 0.527,-1.175 1.176,-1.175 l 1.912,0 c 0.749,0 1.357,0.609 1.357,1.357 l 0,21.925 z"
       id="path6486"
       inkscape:connector-curvature="0" /><path
       fill="#1aa6b7"
       d="m -564.921,42.928 c -4.384,1.794 -6.642,4.119 -7.548,7.774 -0.066,0.268 0.097,0.539 0.365,0.605 0.04,0.01 0.081,0.015 0.121,0.015 0.224,0 0.428,-0.152 0.485,-0.38 0.82,-3.309 2.901,-5.429 6.956,-7.088 0.255,-0.104 0.378,-0.396 0.273,-0.652 -0.105,-0.257 -0.399,-0.379 -0.652,-0.274 z"
       id="path6488"
       inkscape:connector-curvature="0" /></g><g
     id="g6490"
     transform="translate(0,-25)"><path
      fill="#1aa6b7"
       d="m -429.739,41.063 -19.581,0 c -0.276,0 -0.5,0.224 -0.5,0.5 0,0.276 0.224,0.5 0.5,0.5 l 19.581,0 c 0.276,0 0.5,-0.224 0.5,-0.5 0,-0.276 -0.224,-0.5 -0.5,-0.5 z"
       id="path6492"
       inkscape:connector-curvature="0" /><path
       fill="#1aa6b7"
       d="m -386.521,50.501 -14.364,-14.586 c -0.343,-0.348 -0.887,-0.398 -1.288,-0.116 -0.4,0.281 -0.538,0.811 -0.326,1.251 l 3.623,7.529 -18.417,15.594 -2.738,-22.275 c -0.036,-1.712 -1.439,-3.093 -3.16,-3.093 l -22.777,0 c -1.396,-6.359 -7.145,-11.058 -13.731,-11.058 -7.758,0 -14.07,6.312 -14.07,14.07 0,7.404 5.754,13.477 13.024,14.016 l -2.599,21.138 c -0.005,0.041 -0.007,0.081 -0.007,0.122 0,1.743 1.417,3.16 3.159,3.16 l 41.321,0 c 1.742,0 3.159,-1.417 3.159,-3.16 0,-0.041 -0.002,-0.082 -0.007,-0.122 l -0.383,-3.11 20.911,-21.52 7.509,3.757 c 0.435,0.218 0.968,0.089 1.256,-0.307 0.29,-0.395 0.249,-0.941 -0.095,-1.29 z m -85.246,-12.684 c 0,-6.656 5.415,-12.07 12.07,-12.07 5.504,0 10.332,3.82 11.686,9.058 l -7.858,0 c -1.72,0 -3.123,1.381 -3.159,3.093 l -1.469,11.947 c -6.283,-0.415 -11.27,-5.644 -11.27,-12.028 z m 76.818,8.408 c -0.39,-0.195 -0.861,-0.115 -1.165,0.198 l -21.754,22.388 c -0.211,0.217 -0.312,0.518 -0.275,0.819 l 0.433,3.516 c -0.027,0.616 -0.537,1.108 -1.158,1.108 l -41.321,0 c -0.622,0 -1.131,-0.493 -1.158,-1.108 l 4.311,-35.058 c 0.005,-0.041 0.007,-0.081 0.007,-0.122 0,-0.64 0.52,-1.16 1.16,-1.16 l 32.681,0 c 0.64,0 1.16,0.521 1.16,1.16 0,0.041 0.002,0.082 0.007,0.122 l 2.971,24.168 c 0.045,0.365 0.286,0.675 0.628,0.809 0.342,0.133 0.729,0.069 1.01,-0.168 l 20.419,-17.29 c 0.348,-0.294 0.453,-0.787 0.255,-1.197 l -1.348,-2.801 5.916,6.007 -2.779,-1.391 z"
       id="path6494"
       inkscape:connector-curvature="0" /></g><g
     id="g6496"
     transform="translate(0,-25)"><path
       fill="#1aa6b7"
       d="m -305.054,64.71 14.701,0 c 0.276,0 0.5,-0.224 0.5,-0.5 0,-0.276 -0.224,-0.5 -0.5,-0.5 l -14.701,0 c -0.276,0 -0.5,0.224 -0.5,0.5 0,0.276 0.224,0.5 0.5,0.5 z"
       id="path6498"
       inkscape:connector-curvature="0" /><path
       fill="#1aa6b7"
       d="m -273.147,61.116 c -0.091,0 -0.18,0.01 -0.271,0.014 -1.679,-4.503 -4.932,-8.319 -9.145,-11.022 -0.355,-7.042 -7,-12.678 -15.141,-12.678 -8.126,0 -14.762,5.618 -15.138,12.642 -1.145,0.737 -2.225,1.56 -3.228,2.467 l 0,-2.306 c 0,-0.383 -0.219,-0.733 -0.564,-0.9 l -35.1,-16.982 0,-6.229 c 0,-0.552 -0.448,-1 -1,-1 -0.552,0 -1,0.448 -1,1 l 0,6.855 c 0,0.383 0.219,0.733 0.564,0.9 l 35.1,16.982 0,2.538 -18.291,-8.196 c -0.258,-0.115 -0.555,-0.117 -0.815,-10e-4 -5.598,2.488 -9.214,8.05 -9.214,14.171 0,3.348 1.051,6.536 3.04,9.22 0.189,0.254 0.487,0.405 0.804,0.405 l 18.385,0 c 0.487,3.32 3.346,5.88 6.799,5.88 3.454,0 6.313,-2.56 6.8,-5.88 l 30.615,0 c 0.487,3.32 3.346,5.88 6.8,5.88 3.794,0 6.88,-3.086 6.88,-6.88 0,-3.792 -3.086,-6.88 -6.88,-6.88 z M -297.703,39.43 c 6.538,0 11.964,4.098 12.987,9.446 -3.852,-1.989 -8.308,-3.129 -12.987,-3.129 -4.653,0 -9.104,1.086 -12.978,3.082 1.046,-5.326 6.459,-9.399 12.978,-9.399 z m -13.869,12.205 c 0.165,-0.054 0.311,-0.142 0.426,-0.267 3.893,-2.34 8.546,-3.622 13.443,-3.622 4.98,0 9.692,1.369 13.576,3.73 0.077,0.059 0.154,0.113 0.245,0.148 3.871,2.416 6.892,5.83 8.486,9.873 -0.023,0.008 -0.044,0.02 -0.067,0.028 -0.232,0.083 -0.459,0.179 -0.679,0.286 -0.068,0.033 -0.138,0.064 -0.205,0.099 -0.225,0.119 -0.444,0.247 -0.653,0.389 -0.116,0.078 -0.223,0.166 -0.334,0.25 -0.092,0.071 -0.184,0.142 -0.272,0.217 -0.125,0.107 -0.247,0.216 -0.364,0.331 -0.053,0.053 -0.103,0.108 -0.154,0.162 -0.228,0.239 -0.437,0.492 -0.627,0.761 -0.039,0.055 -0.081,0.108 -0.118,0.164 -0.091,0.137 -0.175,0.277 -0.256,0.42 -0.055,0.097 -0.106,0.196 -0.157,0.295 -0.066,0.131 -0.133,0.26 -0.191,0.396 -0.096,0.224 -0.18,0.453 -0.252,0.688 -0.028,0.094 -0.049,0.19 -0.074,0.286 -0.049,0.188 -0.09,0.378 -0.124,0.573 -0.009,0.053 -0.026,0.103 -0.034,0.156 l -30.605,0 c -0.425,-2.896 -2.652,-5.21 -5.507,-5.756 l 0,-5.908 c 1.324,-1.419 2.84,-2.655 4.497,-3.699 z m -32.817,7.738 c 0,-5.185 2.979,-9.91 7.628,-12.159 l 18.692,8.375 0,5.563 c -3.131,0.322 -5.638,2.754 -6.091,5.846 l -17.871,0 c -1.544,-2.25 -2.358,-4.876 -2.358,-7.625 z m 27.028,13.505 c -2.691,0 -4.88,-2.189 -4.88,-4.88 0,-2.692 2.189,-4.882 4.88,-4.882 2.691,0 4.881,2.19 4.881,4.882 0,2.691 -2.19,4.88 -4.881,4.88 z m 44.214,0 c -2.691,0 -4.881,-2.189 -4.881,-4.88 0,-0.323 0.035,-0.637 0.095,-0.942 0.015,-0.079 0.044,-0.152 0.063,-0.229 0.056,-0.227 0.12,-0.45 0.206,-0.663 0.031,-0.075 0.07,-0.146 0.104,-0.219 0.096,-0.206 0.201,-0.407 0.324,-0.596 0.043,-0.066 0.092,-0.129 0.138,-0.193 0.13,-0.181 0.271,-0.353 0.424,-0.514 0.06,-0.063 0.123,-0.124 0.186,-0.184 0.149,-0.141 0.309,-0.271 0.476,-0.392 0.088,-0.064 0.176,-0.127 0.269,-0.185 0.147,-0.093 0.303,-0.173 0.46,-0.25 0.127,-0.062 0.253,-0.125 0.387,-0.176 0.129,-0.05 0.264,-0.084 0.397,-0.124 0.168,-0.048 0.335,-0.099 0.51,-0.129 0.275,-0.048 0.554,-0.085 0.842,-0.085 2.691,0 4.88,2.19 4.88,4.882 0,2.69 -2.189,4.879 -4.88,4.879 z"
       id="path6500"
       inkscape:connector-curvature="0" /></g><g
     id="g6502"
     transform="translate(0,-25)"><path
       fill="#1aa6b7"
       d="m -182.989,41.033 -14.91,0 c -0.276,0 -0.5,0.224 -0.5,0.5 0,0.276 0.224,0.5 0.5,0.5 l 14.91,0 c 0.276,0 0.5,-0.224 0.5,-0.5 0,-0.276 -0.224,-0.5 -0.5,-0.5 z"
       id="path6504"
       inkscape:connector-curvature="0" /><path
       fill="#1aa6b7"
       d="m -157.301,59.187 c -2.233,0 -4.31,0.677 -6.041,1.833 l -3.118,-3.863 c 8.487,-3.708 14.329,-11.353 14.329,-20.168 0,-0.552 -0.448,-1 -1,-1 l -4.325,0 c -0.601,-9.457 -9.587,-16.996 -20.581,-16.996 -10.994,0 -19.98,7.54 -20.581,16.996 l -4.325,0 c -0.552,0 -1,0.448 -1,1 0,4.416 1.471,8.535 4,12.017 -4.442,-0.63 -6.965,-3.309 -9.616,-6.125 -2.891,-3.07 -5.879,-6.225 -11.34,-6.793 -0.33,-0.649 -0.998,-1.099 -1.776,-1.099 l -9.935,0 c -1.104,0 -2,0.896 -2,2 0,1.104 0.896,2 2,2 l 9.935,0 c 0.698,0 1.311,-0.359 1.668,-0.9 4.673,0.53 7.268,3.271 9.992,6.164 3.142,3.337 6.396,6.778 12.822,6.883 2.276,2.453 5.129,4.481 8.378,5.932 l -10.01,12.403 c -0.347,0.43 -0.279,1.059 0.15,1.406 0.185,0.149 0.407,0.222 0.627,0.222 0.292,0 0.581,-0.127 0.779,-0.372 l 10.393,-12.877 c 3.036,1.089 6.357,1.694 9.839,1.694 3.401,0 6.647,-0.579 9.625,-1.621 l 3.517,4.358 c -2.042,1.984 -3.316,4.753 -3.316,7.818 0,6.017 4.895,10.911 10.911,10.911 6.017,0 10.911,-4.895 10.911,-10.911 -10e-4,-6.018 -4.895,-10.912 -10.912,-10.912 z m -20.736,-38.195 c 9.886,0 17.999,6.64 18.603,14.996 l -37.205,0 c 0.603,-8.356 8.716,-14.996 18.602,-14.996 z m -23.878,16.996 4.239,0 39.277,0 4.239,0 c -0.609,10.871 -11.086,19.554 -23.878,19.554 -12.792,0 -23.268,-8.684 -23.877,-19.554 z m 44.614,41.02 c -4.914,0 -8.911,-3.998 -8.911,-8.911 0,-2.437 0.985,-4.647 2.576,-6.257 l 5.557,6.885 c 0.198,0.245 0.487,0.372 0.779,0.372 0.221,0 0.442,-0.073 0.627,-0.222 0.43,-0.347 0.497,-0.977 0.15,-1.406 l -5.554,-6.882 c 1.382,-0.882 3.018,-1.4 4.776,-1.4 4.914,0 8.911,3.997 8.911,8.911 0,4.914 -3.997,8.91 -8.911,8.91 z"
       id="path6506"
       inkscape:connector-curvature="0" /></g><g
     id="g6508"
     transform="translate(0,-25)"><path
       fill="#1aa6b7"
       d="m -51.543,44.567 c -0.77,-1.437 -2.519,-2.228 -4.927,-2.228 -2.741,0 -6.19,1.004 -9.461,2.754 -3.153,1.687 -5.284,4.456 -6.626,6.785 l 0,-12.758 c 0.762,-0.304 1.395,-0.903 1.971,-1.456 0.458,-0.439 0.931,-0.894 1.298,-1.013 0.35,-0.112 1.029,-0.047 1.729,0.046 0.474,0.063 0.964,0.129 1.447,0.129 0.762,0 1.367,-0.17 1.85,-0.522 0.977,-0.711 1.202,-1.946 1.399,-3.035 0.117,-0.641 0.237,-1.304 0.479,-1.637 0.237,-0.325 0.824,-0.639 1.392,-0.944 0.983,-0.526 2.097,-1.123 2.475,-2.287 0.365,-1.122 -0.17,-2.237 -0.642,-3.221 -0.289,-0.602 -0.587,-1.225 -0.587,-1.666 0,-0.441 0.299,-1.063 0.588,-1.666 0.472,-0.984 1.006,-2.099 0.642,-3.221 -0.378,-1.163 -1.492,-1.76 -2.475,-2.287 -0.568,-0.304 -1.156,-0.619 -1.392,-0.944 -0.243,-0.333 -0.363,-0.997 -0.48,-1.638 -0.198,-1.089 -0.422,-2.324 -1.399,-3.035 -0.483,-0.352 -1.088,-0.522 -1.85,-0.522 -0.483,0 -0.973,0.065 -1.447,0.129 -0.699,0.094 -1.379,0.16 -1.729,0.046 -0.368,-0.12 -0.841,-0.574 -1.298,-1.013 -0.81,-0.777 -1.728,-1.659 -2.971,-1.659 -1.243,0 -2.161,0.882 -2.971,1.66 -0.457,0.439 -0.93,0.894 -1.298,1.013 -0.349,0.116 -1.029,0.047 -1.729,-0.046 -0.474,-0.063 -0.964,-0.128 -1.447,-0.128 -0.762,0 -1.367,0.17 -1.85,0.522 -0.977,0.711 -1.201,1.946 -1.399,3.035 -0.117,0.641 -0.237,1.304 -0.479,1.638 -0.236,0.325 -0.824,0.64 -1.392,0.944 -0.982,0.526 -2.097,1.124 -2.474,2.287 -0.364,1.122 0.17,2.237 0.642,3.221 0.289,0.602 0.588,1.225 0.588,1.666 0,0.441 -0.299,1.063 -0.588,1.666 -0.472,0.983 -1.006,2.099 -0.642,3.221 0.378,1.164 1.492,1.76 2.475,2.287 0.568,0.304 1.156,0.619 1.392,0.943 0.243,0.333 0.363,0.996 0.479,1.637 0.198,1.089 0.422,2.324 1.399,3.035 0.483,0.352 1.088,0.522 1.85,0.522 0.483,0 0.973,-0.065 1.447,-0.129 0.7,-0.093 1.379,-0.16 1.728,-0.046 0.368,0.119 0.841,0.573 1.298,1.013 0.576,0.553 1.208,1.152 1.971,1.456 l 0,28.148 -12.649,0 c -0.92,0 -1.668,0.749 -1.668,1.669 l 0,7.033 c 0,0.552 0.448,1 1,1 l 1.26,0 1.328,16.292 c 0,0.92 0.749,1.669 1.669,1.669 l 20.122,0 c 0.92,0 1.669,-0.749 1.666,-1.588 l 1.331,-16.373 1.261,0 c 0.552,0 1,-0.448 1,-1 l 0,-7.033 c 0,-0.92 -0.749,-1.669 -1.669,-1.669 l -12.649,0 0,-9.723 c 1.069,0.222 2.764,0.49 4.743,0.49 2.986,0 5.627,-0.603 7.85,-1.792 2.932,-1.568 5.426,-3.565 7.023,-5.624 1.768,-2.281 2.265,-4.431 1.396,-6.053 z m -12.256,48.364 -19.51,0 -1.298,-15.96 3.18,0 0,12.208 c 0,0.276 0.224,0.5 0.5,0.5 0.276,0 0.5,-0.224 0.5,-0.5 l 0,-12.208 17.923,0 -1.295,15.96 z m 3.561,-17.96 -26.636,0 0,-5.702 26.636,0 0,5.702 z m -16.97,-40.222 c -0.338,-0.11 -0.715,-0.163 -1.152,-0.163 -0.488,0 -0.981,0.066 -1.458,0.129 -0.818,0.111 -1.589,0.166 -1.855,-0.028 -0.329,-0.239 -0.477,-1.055 -0.608,-1.775 -0.157,-0.862 -0.319,-1.754 -0.83,-2.457 -0.505,-0.694 -1.298,-1.119 -2.064,-1.53 -0.65,-0.348 -1.388,-0.743 -1.517,-1.142 -0.117,-0.361 0.234,-1.092 0.543,-1.738 0.385,-0.804 0.784,-1.635 0.784,-2.531 0,-0.896 -0.399,-1.727 -0.784,-2.531 -0.31,-0.645 -0.661,-1.376 -0.543,-1.738 0.129,-0.398 0.866,-0.793 1.517,-1.142 0.767,-0.411 1.559,-0.835 2.064,-1.53 0.511,-0.703 0.673,-1.595 0.83,-2.457 0.131,-0.72 0.279,-1.536 0.608,-1.775 0.267,-0.193 1.036,-0.137 1.855,-0.028 0.904,0.121 1.895,0.199 2.612,-0.034 0.804,-0.261 1.445,-0.877 2.065,-1.473 0.538,-0.517 1.147,-1.102 1.585,-1.102 0.438,0 1.047,0.585 1.585,1.102 0.62,0.596 1.262,1.211 2.066,1.473 0.717,0.233 1.708,0.154 2.611,0.034 0.82,-0.109 1.589,-0.165 1.855,0.028 0.33,0.24 0.478,1.056 0.608,1.775 0.157,0.862 0.319,1.754 0.831,2.457 0.505,0.695 1.298,1.12 2.065,1.53 0.65,0.348 1.387,0.743 1.517,1.142 0.117,0.361 -0.234,1.092 -0.543,1.738 -0.385,0.804 -0.784,1.635 -0.784,2.531 0,0.896 0.398,1.727 0.784,2.53 0.31,0.646 0.661,1.377 0.543,1.739 -0.129,0.398 -0.867,0.793 -1.517,1.142 -0.766,0.41 -1.559,0.835 -2.064,1.529 -0.511,0.703 -0.673,1.594 -0.83,2.457 -0.131,0.72 -0.279,1.536 -0.608,1.775 -0.127,0.092 -0.354,0.139 -0.673,0.139 -0.35,0 -0.754,-0.054 -1.182,-0.111 -0.904,-0.121 -1.895,-0.199 -2.611,0.034 -0.805,0.261 -1.446,0.877 -2.066,1.473 -0.538,0.517 -1.147,1.102 -1.585,1.102 -0.438,0 -1.047,-0.585 -1.585,-1.102 -0.623,-0.595 -1.264,-1.211 -2.069,-1.472 z m 22.687,14.645 c -1.429,1.841 -3.697,3.647 -6.387,5.086 -1.93,1.033 -4.253,1.556 -6.907,1.556 -1.798,0 -3.361,-0.248 -4.33,-0.448 0.813,-2.007 3.022,-6.521 7.156,-8.731 2.99,-1.6 6.095,-2.518 8.518,-2.518 1.611,0 2.765,0.427 3.164,1.172 0.46,0.859 0.007,2.31 -1.214,3.883 z"
       id="path6510"
       inkscape:connector-curvature="0" /><circle
       fill="#1aa6b7"
       cx="-73.556"
       cy="23.516001"
       r="5.3779998"
       id="circle6512" /></g><g
     id="g6514"
     transform="translate(0,-25)"><path
       fill="#1aa6b7"
       d="m 167.968,43.765 -22.131,0 c -0.553,0 -1,0.448 -1,1 0,0.552 0.447,1 1,1 l 22.131,0 c 0.553,0 1,-0.448 1,-1 0,-0.552 -0.447,-1 -1,-1 z"
       id="path6516"
       inkscape:connector-curvature="0" /><path
       fill="#1aa6b7"
       d="m 209.548,39.007 c 0.313,-0.274 0.424,-0.714 0.276,-1.104 -0.146,-0.39 -0.52,-0.648 -0.936,-0.648 l -5.063,0 c -0.146,0 -0.29,0.032 -0.422,0.093 l -23.642,11.012 -0.95,-7.73 c -0.035,-1.867 -1.564,-3.375 -3.439,-3.375 l -12.587,0 0,-15.214 c 0,-3.243 -2.639,-5.882 -5.882,-5.882 -3.243,0 -5.882,2.639 -5.882,5.882 l 0,15.215 -12.587,0 c -1.875,0 -3.404,1.508 -3.439,3.375 l -4.875,39.648 c -0.005,0.041 -0.008,0.081 -0.008,0.122 0,1.897 1.543,3.441 3.44,3.441 l 46.701,0 c 1.897,0 3.44,-1.543 3.44,-3.441 0,-0.041 -0.003,-0.082 -0.008,-0.122 l -2.074,-16.868 c 0.104,-0.041 0.203,-0.096 0.291,-0.173 L 209.548,39.007 Z M 153.021,22.041 c 0,-2.141 1.741,-3.882 3.882,-3.882 2.141,0 3.882,1.741 3.882,3.882 l 0,15.215 -7.764,0 0,-15.215 z m 27.232,59.8 -46.701,0 c -0.776,0 -1.411,-0.618 -1.439,-1.388 l 4.873,-39.635 c 0.005,-0.041 0.008,-0.081 0.008,-0.122 0,-0.794 0.646,-1.441 1.44,-1.441 l 13.587,0 9.764,0 13.587,0 c 0.794,0 1.44,0.646 1.44,1.441 0,0.041 0.003,0.082 0.008,0.122 l 4.873,39.635 c -0.029,0.771 -0.664,1.388 -1.44,1.388 z m -0.236,-31.405 c 0.018,-0.007 0.036,-0.005 0.054,-0.013 l 23.977,-11.167 2.184,0 -24.905,21.828 -1.31,-10.648 z"
       id="path6518"
       inkscape:connector-curvature="0" /></g><g
     id="g6520"
     transform="translate(0,-25)"><path
       fill="#1aa6b7"
       d="m 272.64,66.651 -8.663,8.663 c -0.195,0.195 -0.195,0.512 0,0.707 0.098,0.098 0.226,0.146 0.354,0.146 0.128,0 0.256,-0.049 0.354,-0.146 l 8.663,-8.663 c 0.195,-0.195 0.195,-0.512 0,-0.707 -0.195,-0.195 -0.513,-0.195 -0.708,0 z"
       id="path6522"
       inkscape:connector-curvature="0" /><path
       fill="#1aa6b7"
       d="M 282.938,61.149 324.467,19.62 c 1.128,-1.128 1.128,-2.963 0,-4.09 -1.094,-1.092 -2.998,-1.092 -4.09,0 l -41.552,41.552 c -0.482,0.071 -0.945,0.277 -1.301,0.633 l -4.213,4.213 -6.547,-6.547 c -0.744,-0.744 -2.041,-0.747 -2.788,0 -0.66,0.66 -16.05,16.285 -5.848,26.488 2.288,2.288 5.066,3.448 8.259,3.449 0,0 0,0 10e-4,0 8.849,0 17.851,-8.917 18.229,-9.297 0.767,-0.768 0.767,-2.018 -0.001,-2.786 l -6.548,-6.548 4.213,-4.213 c 0.373,-0.373 0.586,-0.841 0.657,-1.325 z m 38.853,-44.205 c 0.336,-0.337 0.924,-0.337 1.262,0.001 0.348,0.347 0.348,0.913 0,1.261 l -40.856,40.855 -0.067,-0.068 -1.193,-1.194 40.854,-40.855 z m -45.843,49.035 c -0.391,0.391 -0.391,1.023 0,1.414 l 7.254,7.214 c -0.087,0.087 -8.785,8.71 -16.814,8.71 -2.643,0 -4.945,-0.963 -6.845,-2.863 -8.793,-8.793 5.7,-23.512 5.807,-23.66 l 7.255,7.255 c 0.375,0.375 1.039,0.375 1.414,0 l 4.92,-4.92 c 0.053,-0.053 0.102,-0.085 0.149,-0.107 l 0.123,0.009 c 0.063,0.005 0.153,0.025 0.226,0.098 l 1.432,1.432 c 0.065,0.065 0.095,0.151 0.098,0.237 l 0.002,0.019 c -0.003,0.087 -0.033,0.174 -0.1,0.241 l -4.921,4.921 z"
       id="path6524"
       inkscape:connector-curvature="0" /></g><path
       fill="#1aa6b7"
     d="m 570.894,-12.754 c 0,-0.773 -0.301,-1.5 -0.848,-2.046 -1.094,-1.092 -2.998,-1.092 -4.09,0.001 l -39.349,39.348 c -0.483,0.071 -0.947,0.277 -1.303,0.634 l -4.784,4.784 -4.637,1.036 c -0.356,0.08 -0.641,0.347 -0.742,0.697 -0.003,0.008 -0.002,0.017 -0.004,0.026 l -25.164,6.937 c -0.267,0.073 -0.423,0.349 -0.35,0.615 0.062,0.222 0.263,0.367 0.482,0.367 0.044,0 0.089,-0.006 0.133,-0.018 l 25.16,-6.936 0.57,0.571 -21.596,9.711 c -0.233,0.106 -0.322,0.375 -0.231,0.613 0.069,0.183 0.232,0.309 0.422,0.309 0.074,0 0.146,-0.03 0.192,-0.078 l 21.914,-9.855 0.662,0.662 -18.561,12.659 c -0.2,0.138 -0.223,0.396 -0.111,0.612 0.074,0.143 0.202,0.25 0.362,0.25 0.104,0 0.201,-0.055 0.25,-0.139 l 18.693,-12.75 0.707,0.708 -15.502,15.628 c -0.166,0.17 -0.164,0.444 0.007,0.611 0.052,0.116 0.173,0.191 0.302,0.191 0.135,0 0.259,-0.079 0.31,-0.198 l 15.495,-15.621 0.71,0.709 -12.423,18.618 c -0.134,0.203 -0.078,0.476 0.125,0.61 0.049,0.081 0.143,0.133 0.242,0.133 0.165,0 0.314,-0.104 0.368,-0.258 l 12.322,-18.467 0.664,0.664 -9.322,21.629 c -0.1,0.236 0.009,0.508 0.244,0.608 0.044,0.045 0.112,0.074 0.183,0.074 0.194,0 0.371,-0.127 0.426,-0.318 L 522,39.291 l 0.561,0.56 c 0.003,0.003 0.008,0.004 0.012,0.007 l -6.201,24.667 c -0.066,0.268 0.096,0.54 0.363,0.607 0.041,0.01 0.082,0.015 0.122,0.015 0.225,0 0.428,-0.151 0.485,-0.378 l 6.2,-24.664 c 0.002,0 0.003,0 0.005,0 0.351,-0.102 0.617,-0.387 0.696,-0.743 l 1.035,-4.637 4.784,-4.784 c 0.362,-0.363 0.584,-0.824 0.656,-1.323 l 39.327,-39.328 c 0.548,-0.545 0.849,-1.272 0.849,-2.044 z m -47.075,46.11 c -0.056,0.045 -0.106,0.096 -0.153,0.153 -0.138,0.135 -0.233,0.308 -0.275,0.497 l -0.702,3.145 -4.594,-4.593 3.146,-0.703 c 0.162,-0.036 0.312,-0.112 0.437,-0.22 0.03,-0.023 0.071,-0.056 0.091,-0.074 0.049,-0.044 0.093,-0.093 0.131,-0.146 l 4.82,-4.819 c 0.051,-0.051 0.099,-0.083 0.145,-0.105 l 0.131,0.01 c 0.091,0.007 0.164,0.039 0.222,0.096 l 1.434,1.434 c 0.058,0.057 0.09,0.133 0.097,0.224 l 0.003,0.041 c -0.002,0.058 -0.018,0.149 -0.101,0.232 l -4.832,4.828 z m 44.813,-45.48 -38.653,38.654 -1.262,-1.262 38.653,-38.654 c 0.338,-0.337 0.924,-0.338 1.262,0 0.169,0.168 0.262,0.392 0.262,0.631 0,0.239 -0.093,0.463 -0.262,0.631 z"
     id="path6526"
     inkscape:connector-curvature="0" /><path
     fill="#1aa6b7"
     d="m 398.658,40.431 48.785,-48.786 c 1.128,-1.127 1.128,-2.962 0.001,-4.09 -1.092,-1.093 -2.996,-1.093 -4.09,0 l -48.809,48.809 c -0.483,0.07 -0.946,0.277 -1.302,0.633 l -4.314,4.315 -9.672,-9.672 c -0.391,-0.391 -1.023,-0.391 -1.414,0 -0.259,0.259 -0.33,0.622 -0.245,0.952 l -5.243,5.243 c -0.195,0.195 -0.195,0.512 0,0.707 0.098,0.098 0.226,0.146 0.354,0.146 0.128,0 0.256,-0.049 0.354,-0.146 l 5.135,-5.135 1.703,1.703 -5.135,5.135 c -0.195,0.195 -0.195,0.511 0,0.707 0.098,0.098 0.226,0.146 0.354,0.146 0.128,0 0.256,-0.049 0.354,-0.146 l 5.135,-5.135 1.703,1.703 -5.135,5.135 c -0.195,0.195 -0.195,0.512 0,0.707 0.098,0.098 0.226,0.146 0.354,0.146 0.128,0 0.256,-0.049 0.354,-0.146 l 5.135,-5.135 1.703,1.703 -5.136,5.135 c -0.195,0.195 -0.195,0.512 0,0.707 0.098,0.098 0.226,0.146 0.354,0.146 0.127,0 0.256,-0.049 0.354,-0.146 l 5.135,-5.134 1.703,1.703 -5.135,5.135 c -0.195,0.195 -0.195,0.511 0,0.707 0.098,0.098 0.226,0.146 0.354,0.146 0.127,0 0.255,-0.049 0.353,-0.146 l 5.136,-5.134 1.703,1.703 -5.135,5.135 c -0.195,0.195 -0.195,0.512 0,0.707 0.098,0.098 0.225,0.146 0.354,0.146 0.127,0 0.256,-0.049 0.354,-0.146 l 5.135,-5.135 1.703,1.703 -5.136,5.134 c -0.195,0.195 -0.195,0.512 0,0.707 0.098,0.098 0.227,0.146 0.354,0.146 0.127,0 0.255,-0.049 0.353,-0.146 l 5.136,-5.134 1.703,1.703 -5.135,5.134 c -0.195,0.195 -0.195,0.512 0,0.707 0.098,0.098 0.225,0.146 0.354,0.146 0.127,0 0.255,-0.049 0.353,-0.146 l 5.135,-5.135 1.703,1.703 -5.135,5.135 c -0.195,0.195 -0.195,0.512 0,0.707 0.098,0.098 0.226,0.146 0.354,0.146 0.128,0 0.256,-0.049 0.354,-0.146 l 5.135,-5.135 1.703,1.703 -5.135,5.135 c -0.195,0.195 -0.195,0.512 0,0.707 0.098,0.098 0.226,0.146 0.354,0.146 0.128,0 0.256,-0.049 0.354,-0.146 l 5.135,-5.135 1.703,1.703 -5.135,5.135 c -0.195,0.195 -0.195,0.512 0,0.707 0.098,0.098 0.226,0.146 0.354,0.146 0.128,0 0.256,-0.049 0.354,-0.146 l 5.243,-5.243 c 0.081,0.021 0.162,0.048 0.245,0.048 0.256,0 0.512,-0.098 0.707,-0.293 0.391,-0.391 0.391,-1.023 0,-1.414 l -9.671,-9.671 4.314,-4.314 c 0.357,-0.362 0.579,-0.825 0.65,-1.325 z m -2.07,-0.089 -4.314,4.314 -1.93,-1.93 4.314,-4.315 c 0.052,-0.051 0.1,-0.084 0.146,-0.106 l 0.127,0.01 c 0.092,0.007 0.167,0.04 0.225,0.097 l 1.433,1.433 c 0.039,0.039 0.059,0.08 0.074,0.12 0.014,0.037 0.021,0.074 0.022,0.104 l 0.003,0.045 c -0.002,0.058 -0.019,0.147 -0.1,0.228 z m 0.067,-3.259 48.113,-48.113 c 0.338,-0.338 0.924,-0.337 1.262,0 0.348,0.348 0.347,0.914 -10e-4,1.261 l -48.113,48.114 -1.261,-1.262 z"
     id="path6528"
     inkscape:connector-curvature="0" /><g
     id="g6530"
     transform="translate(-24,-1)"><path
       fill="#1aa6b7"
       d="m 43.437,42.29 0,-3.091 c 0,-0.276 -0.224,-0.5 -0.5,-0.5 -0.276,0 -0.5,0.224 -0.5,0.5 l 0,2.091 -1.716,-1.715 0,-3.092 c 0,-0.276 -0.224,-0.5 -0.5,-0.5 -0.276,0 -0.5,0.224 -0.5,0.5 l 0,2.092 -0.804,-0.803 C 38.916,37.771 38.915,37.77 38.914,37.769 l -3.087,-3.087 c -0.195,-0.195 -0.512,-0.195 -0.707,0 -0.195,0.195 -0.195,0.512 0,0.707 l 2.235,2.235 -2.093,0 c -0.276,0 -0.5,0.224 -0.5,0.5 0,0.276 0.224,0.5 0.5,0.5 l 3.093,0 1.511,1.511 c 10e-4,0.001 10e-4,0.002 0.002,0.002 l 0.204,0.204 -2.093,0 c -0.276,0 -0.5,0.224 -0.5,0.5 0,0.276 0.224,0.5 0.5,0.5 l 3.093,0 1.509,1.509 c 10e-4,0.002 0.003,0.003 0.005,0.005 l 0.245,0.245 -2.093,0 c -0.276,0 -0.5,0.224 -0.5,0.5 0,0.276 0.224,0.5 0.5,0.5 l 3.093,0 1.51,1.51 c 0.002,10e-4 0.003,0.002 0.004,0.003 l 1.578,1.578 c 0.098,0.098 0.226,0.146 0.354,0.146 0.128,0 0.256,-0.049 0.354,-0.146 0.195,-0.195 0.195,-0.512 0,-0.707 l -1.434,-1.434 0,-3.092 c 0,-0.276 -0.224,-0.5 -0.5,-0.5 -0.276,0 -0.5,0.224 -0.5,0.5 l 0,2.092 -1.76,-1.76 z"
       id="path6532"
       inkscape:connector-curvature="0" /><path
       fill="#1aa6b7"
       d="m 46.049,21.245 -1.512,-1.512 0,-3.092 c 0,-0.276 -0.224,-0.5 -0.5,-0.5 -0.276,0 -0.5,0.224 -0.5,0.5 l 0,2.092 -1.759,-1.758 0,-3.092 c 0,-0.276 -0.224,-0.5 -0.5,-0.5 -0.276,0 -0.5,0.224 -0.5,0.5 l 0,2.092 -0.203,-0.203 C 40.574,15.771 40.573,15.77 40.572,15.769 l -1.51,-1.51 0,-3.093 c 0,-0.276 -0.224,-0.5 -0.5,-0.5 -0.276,0 -0.5,0.224 -0.5,0.5 l 0,2.093 -2.235,-2.235 c -0.195,-0.195 -0.512,-0.195 -0.707,0 -0.195,0.195 -0.195,0.512 0,0.707 l 3.894,3.893 -2.093,0 c -0.276,0 -0.5,0.224 -0.5,0.5 0,0.276 0.224,0.5 0.5,0.5 l 3.093,0 0.91,0.91 c 10e-4,0.001 0.002,0.002 0.002,0.002 l 0.805,0.805 -2.093,0 c -0.276,0 -0.5,0.224 -0.5,0.5 0,0.276 0.224,0.5 0.5,0.5 l 3.093,0 0.952,0.952 c 10e-4,0.001 0.002,0.002 0.003,0.003 l 0.804,0.804 -2.093,0 c -0.276,0 -0.5,0.224 -0.5,0.5 0,0.276 0.224,0.5 0.5,0.5 l 3.093,0 1.434,1.434 c 0.098,0.098 0.226,0.146 0.354,0.146 0.128,0 0.256,-0.049 0.354,-0.146 0.195,-0.195 0.195,-0.512 0,-0.707 L 46.053,21.248 C 46.05,21.246 46.05,21.246 46.049,21.245 Z"
       id="path6534"
       inkscape:connector-curvature="0" /><path
       fill="#1aa6b7"
       d="m 59.261,52.789 -2.094,0 0.247,-0.247 c 10e-4,-0.001 10e-4,-0.001 0.002,-0.002 l 1.511,-1.511 3.093,0 c 0.276,0 0.5,-0.224 0.5,-0.5 0,-0.276 -0.224,-0.5 -0.5,-0.5 l -2.093,0 0.202,-0.202 c 0.002,-0.002 0.003,-0.003 0.005,-0.005 l 1.51,-1.509 3.092,0 c 0.276,0 0.5,-0.224 0.5,-0.5 0,-0.276 -0.224,-0.5 -0.5,-0.5 l -2.092,0 2.234,-2.235 c 0.195,-0.195 0.195,-0.512 0,-0.707 -0.195,-0.195 -0.512,-0.195 -0.707,0 l -3.893,3.893 0,-2.091 c 0,-0.276 -0.224,-0.5 -0.5,-0.5 -0.276,0 -0.5,0.224 -0.5,0.5 l 0,3.091 -1.717,1.717 0,-2.092 c 0,-0.276 -0.224,-0.5 -0.5,-0.5 -0.276,0 -0.5,0.224 -0.5,0.5 l 0,3.092 -1.759,1.759 0,-2.092 c 0,-0.276 -0.224,-0.5 -0.5,-0.5 -0.276,0 -0.5,0.224 -0.5,0.5 l 0,3.092 -1.434,1.434 c -0.195,0.195 -0.195,0.512 0,0.707 0.098,0.098 0.226,0.146 0.354,0.146 0.128,0 0.256,-0.049 0.354,-0.146 l 1.578,-1.578 c 10e-4,-10e-4 0.002,-0.003 0.004,-0.004 l 1.509,-1.509 3.094,0 c 0.276,0 0.5,-0.224 0.5,-0.5 0,-0.276 -0.224,-0.501 -0.5,-0.501 z"
       id="path6536"
       inkscape:connector-curvature="0" /><path
       fill="#1aa6b7"
       d="m 60.361,28.03 -2.093,0 1.716,-1.716 3.093,0 c 0.276,0 0.5,-0.224 0.5,-0.5 0,-0.276 -0.224,-0.5 -0.5,-0.5 l -2.093,0 0.805,-0.805 c 10e-4,0 10e-4,0 0.002,-0.001 l 3.087,-3.087 c 0.195,-0.195 0.195,-0.512 0,-0.707 -0.195,-0.195 -0.512,-0.195 -0.707,0 l -2.234,2.234 0,-2.092 c 0,-0.276 -0.224,-0.5 -0.5,-0.5 -0.276,0 -0.5,0.224 -0.5,0.5 l 0,3.092 -1.717,1.717 0,-2.092 c 0,-0.276 -0.224,-0.5 -0.5,-0.5 -0.276,0 -0.5,0.224 -0.5,0.5 l 0,3.092 -1.511,1.511 c -0.001,0 -0.001,0 -0.002,0.001 l -0.246,0.247 0,-2.093 c 0,-0.276 -0.224,-0.5 -0.5,-0.5 -0.276,0 -0.5,0.224 -0.5,0.5 l 0,3.093 -3.092,3.092 c -0.195,0.195 -0.195,0.512 0,0.707 0.098,0.098 0.226,0.146 0.354,0.146 0.128,0 0.256,-0.049 0.354,-0.146 l 1.434,-1.433 3.092,0 c 0.276,0 0.5,-0.224 0.5,-0.5 0,-0.276 -0.224,-0.5 -0.5,-0.5 l -2.093,0 0.804,-0.805 c 10e-4,0 10e-4,0 0.002,-10e-4 l 0.953,-0.954 3.093,0 c 0.276,0 0.5,-0.224 0.5,-0.5 0,-0.276 -0.224,-0.5 -0.501,-0.5 z"
       id="path6538"
       inkscape:connector-curvature="0" /><path
       fill="#1aa6b7"
       d="m 63.649,67.269 -12.65,0 0,-7.066 c 2.289,-0.173 8.008,-0.999 11.939,-4.93 5.226,-5.225 7.239,-11.092 4.686,-13.646 -0.719,-0.719 -1.746,-1.099 -2.973,-1.099 -3.016,0 -7.105,2.216 -10.674,5.784 -1.31,1.31 -2.268,2.82 -2.979,4.335 l 0,-14.103 c 2.289,-0.173 8.008,-0.999 11.939,-4.93 2.356,-2.356 4.169,-4.997 5.103,-7.436 1.035,-2.701 0.887,-4.907 -0.417,-6.21 -0.719,-0.719 -1.746,-1.099 -2.973,-1.099 -3.016,0 -7.105,2.216 -10.674,5.784 -1.31,1.31 -2.268,2.819 -2.979,4.334 l 0,-0.854 c 0,-0.024 -0.012,-0.044 -0.014,-0.067 0.01,-0.056 0.033,-0.106 0.033,-0.164 0,-0.075 -0.008,-0.148 -0.023,-0.219 C 50.954,24.352 50.531,17.475 46.019,12.963 42.453,9.396 38.362,7.18 35.348,7.18 c -1.226,0 -2.254,0.38 -2.973,1.099 -2.555,2.554 -0.54,8.421 4.685,13.646 3.933,3.932 9.65,4.756 11.939,4.93 l 0,14.101 c -0.711,-1.515 -1.668,-3.024 -2.978,-4.334 -3.568,-3.567 -7.659,-5.784 -10.675,-5.784 -1.226,0 -2.253,0.38 -2.972,1.099 -2.555,2.554 -0.54,8.421 4.685,13.646 3.933,3.932 9.65,4.757 11.939,4.93 l 0,16.756 -12.647,0 c -0.92,0 -1.668,0.749 -1.668,1.669 l 0,7.033 c 0,0.552 0.447,1 1,1 l 1.26,0 1.328,16.292 c 0,0.92 0.748,1.669 1.668,1.669 l 20.123,0 c 0.92,0 1.668,-0.749 1.665,-1.588 l 1.332,-16.373 1.259,0 c 0.553,0 1,-0.448 1,-1 l 0,-7.033 C 65.317,68.017 64.569,67.269 63.649,67.269 Z M 55.392,47.726 c 3.109,-3.109 6.831,-5.198 9.26,-5.198 0.694,0 1.219,0.173 1.559,0.513 1.45,1.451 -0.117,6.25 -4.686,10.818 -3.314,3.314 -8.298,4.128 -10.463,4.328 0.196,-2.163 1.004,-7.136 4.33,-10.461 z m 0,-23.658 c 3.109,-3.109 6.831,-5.198 9.26,-5.198 0.694,0 1.219,0.173 1.559,0.513 0.691,0.691 0.678,2.217 -0.036,4.081 -0.836,2.182 -2.487,4.575 -4.649,6.737 -3.314,3.314 -8.298,4.128 -10.463,4.328 0.195,-2.163 1.003,-7.137 4.329,-10.461 z M 38.474,20.51 C 33.907,15.942 32.339,11.142 33.789,9.693 34.13,9.353 34.654,9.18 35.348,9.18 c 2.429,0 6.149,2.089 9.26,5.198 3.313,3.313 4.127,8.295 4.327,10.46 -2.165,-0.2 -7.147,-1.014 -10.461,-4.328 z m 0,23.658 C 33.906,39.6 32.339,34.8 33.789,33.35 c 0.34,-0.34 0.864,-0.513 1.558,-0.513 2.429,0 6.15,2.089 9.261,5.198 3.313,3.314 4.128,8.298 4.327,10.462 C 46.773,48.301 41.8,47.493 38.474,44.168 Z m 21.283,48.763 -19.51,0 -1.298,-15.96 3.179,0 0,12.208 c 0,0.276 0.224,0.5 0.5,0.5 0.276,0 0.5,-0.224 0.5,-0.5 l 0,-12.208 17.923,0 -1.294,15.96 z m 3.56,-17.96 -26.634,0 0,-5.702 26.635,0 0,5.702 z"
       id="path6540"
       inkscape:connector-curvature="0" /></g></svg>
