<?xml version="1.0" encoding="UTF-8" standalone="no"?>
<svg
   xmlns:dc="http://purl.org/dc/elements/1.1/"
   xmlns:cc="http://creativecommons.org/ns#"
   xmlns:rdf="http://www.w3.org/1999/02/22-rdf-syntax-ns#"
   xmlns:svg="http://www.w3.org/2000/svg"
   xmlns="http://www.w3.org/2000/svg"
   xmlns:sodipodi="http://sodipodi.sourceforge.net/DTD/sodipodi-0.dtd"
   xmlns:inkscape="http://www.inkscape.org/namespaces/inkscape"
   version="1.1"
   x="0px"
   y="0px"
   viewBox="0 0 160 160"
   enable-background="new 0 0 90 90"
   xml:space="preserve"
   id="svg4535"
   inkscape:version="0.91 r13725"
   sodipodi:docname="sofa_160.svg"
   width="160"
   height="160"><metadata
     id="metadata4573"><rdf:RDF><cc:Work
         rdf:about=""><dc:format>image/svg+xml</dc:format><dc:type
           rdf:resource="http://purl.org/dc/dcmitype/StillImage" /><dc:title></dc:title></cc:Work></rdf:RDF></metadata><defs
     id="defs4571" /><sodipodi:namedview
     pagecolor="#ffffff"
     bordercolor="#666666"
     borderopacity="1"
     objecttolerance="10"
     gridtolerance="10"
     guidetolerance="10"
     inkscape:pageopacity="0"
     inkscape:pageshadow="2"
     inkscape:window-width="1186"
     inkscape:window-height="720"
     id="namedview4569"
     showgrid="false"
     inkscape:zoom="2.0977778"
     inkscape:cx="33.082627"
     inkscape:cy="94.385593"
     inkscape:window-x="69"
     inkscape:window-y="92"
     inkscape:window-maximized="0"
     inkscape:current-layer="svg4535" /><g
     id="g4537"
     transform="matrix(1.9349154,0,0,1.8377559,-9.0556007,-1.5417016)"><path
       d="M 84.3,28.7 C 83,26 77.4,26 73.9,26.3 c -0.1,-3.7 -0.2,-13 -0.3,-15.5 0,-0.5 0,-1 0,-1.4 0,-2.3 0,-5.1 -3.9,-5.3 C 67.6,4 66.2,5 65.2,5.6 65,5.8 64.6,6 64.5,6.1 61.6,5.2 51,4.9 46.9,4.9 c -0.1,0 -0.1,0 -0.2,0 0,0 0,0 0,0 -0.1,0 -0.4,0 -0.7,0 -0.3,0 -0.5,0 -0.7,0 0,0 0,0 0,0 -0.1,0 -0.1,0 -0.2,0 C 41,4.9 30.5,5.2 27.5,6.1 27.4,6 27,5.8 26.8,5.6 25.8,4.9 24.4,4 22.3,4 c -3.8,0.2 -3.8,3 -3.9,5.3 0,0.4 0,0.9 0,1.4 -0.1,2.6 0.1,12.1 0.2,16.1 -4.9,-0.7 -7.6,-0.3 -9.1,0.4 -0.1,0 -0.2,0 -0.2,0 -0.3,0.1 -0.5,0.2 -0.6,0.4 -0.5,0.4 -0.8,0.8 -0.9,1 -0.6,1.3 -0.7,4.9 6.4,31.1 0.3,1 0.5,1.7 0.5,2 l 0.1,0.6 c 0.4,1.8 0.9,3.8 4.3,3.8 0.4,0 1.3,0 2.5,0 0,0 0,0 0,0 0,0 0,0 0,0 0.2,0 0.4,0 0.6,0 l -1,18.5 2.7,0 3.7,-18.4 c 0.9,0 1.9,0 2.9,0.1 l -0.7,11.1 2,0 2.6,-11 c 4.3,0.1 8.3,0.2 10.5,0.2 0.1,0 0.2,0 0.3,0 0,0 0,0 0,0 0,0 0.3,0 0.7,0 0.4,0 0.6,0 0.7,0 0,0 0,0 0,0 0.1,0 0.2,0 0.3,0 2.2,0 6.2,-0.1 10.5,-0.2 l 2.7,11.2 2,0 -0.7,-11.2 c 1,0 2,0 2.9,-0.1 l 3.7,18.5 2.7,0 -1,-18.6 c 0.2,0 0.4,0 0.6,0 0,0 0,0 0,0 0,0 0,0 0,0 1.2,0 2.1,0 2.5,0 3.4,0 3.9,-2 4.3,-3.8 l 0.1,-0.6 c 0.1,-0.3 0.3,-1 0.5,-2 C 84.9,33.6 84.9,30 84.3,28.7 Z M 69.6,6.9 c 1.1,0 1.1,0.1 1.1,2.5 0,0.5 0,1 0,1.5 0.1,3.1 0.3,16.9 0.3,17 l 0,1.6 1.6,-0.2 c 1.1,-0.1 2.2,-0.2 3.3,-0.2 -3.3,2.6 -5.7,7.8 -7,15.2 0,0.2 -0.1,0.4 -0.1,0.5 C 68.2,44.4 67.5,44 66.8,43.7 67.9,26.6 66.5,12.4 66.1,8.5 66.4,8.3 66.6,8.2 66.8,8 67.6,7.4 68.4,6.9 69.6,6.9 Z M 46,63.9 c -3.2,-0.1 -15.7,-0.3 -22.6,-0.5 0.4,-2.3 1,-6.8 0.4,-13.2 3.1,0.7 12.1,2.6 21.3,2.8 0.1,0 0.1,0 0.2,0 0.2,0 0.5,0 0.7,0 0.2,0 0.5,0 0.7,0 0.1,0 0.1,0 0.2,0 9.2,-0.2 18.2,-2.1 21.3,-2.8 -0.5,6.3 0,10.8 0.4,13.2 -6.9,0.2 -19.4,0.5 -22.6,0.5 z M 28.7,8.7 c 2.5,-0.6 11.5,-0.9 17.3,-1 5.8,0.1 14.9,0.4 17.3,1 0.4,3.7 1.7,17.4 0.8,34 C 57.9,41 49.4,41 46.1,41.1 42.8,41 34.3,40.9 28.1,42.7 27,26.1 28.3,12.4 28.7,8.7 Z M 45,43.9 c 0.1,0 0.3,0.1 0.4,0 0.2,0 0.4,0 0.6,0 0.2,0 0.4,0 0.6,0 0.1,0 0.3,0 0.4,0 11.7,-0.3 18.5,1.6 20.6,3.6 -2.9,0.7 -12.4,2.7 -21.7,2.8 -9.2,-0.1 -18.7,-2.1 -21.7,-2.8 2.3,-1.9 9,-3.9 20.8,-3.6 z m -25.2,-14 1.7,0.3 0,-1.7 c 0,-0.1 -0.4,-14.5 -0.3,-17.6 0,-0.5 0,-1 0,-1.5 0,-2.4 0.1,-2.4 1.1,-2.5 1.1,-0.1 2,0.5 2.8,1.1 0.2,0.2 0.5,0.3 0.7,0.5 -0.4,3.9 -1.8,18.1 -0.7,35.2 -0.8,0.3 -1.4,0.7 -2,1.1 0,-0.2 -0.1,-0.4 -0.1,-0.5 -1.2,-7.1 -3.4,-12.1 -6.5,-14.8 1.1,0.1 2.2,0.2 3.3,0.4 z m -2.2,31.9 -0.2,-0.6 c -0.1,-0.3 -0.3,-1 -0.5,-2.1 -6,-22.4 -6.8,-27.9 -6.6,-29.2 0.5,-0.1 1.8,-0.1 3.4,0.9 2.1,1.4 5,4.9 6.5,13.9 1.7,9.7 0.8,16.3 0.3,18.7 -0.7,0 -1.1,0 -1.4,0 -1.1,0 -1.1,0 -1.5,-1.6 z m 57.5,-2.7 c -0.3,1.1 -0.5,1.8 -0.5,2.1 l -0.2,0.6 c -0.4,1.6 -0.4,1.6 -1.5,1.6 -0.3,0 -0.7,0 -1.4,0 C 71,61 70,54.5 71.7,44.8 c 1.6,-9 4.4,-12.6 6.5,-13.9 1.6,-1 2.9,-1 3.4,-0.9 0.2,1.2 -0.5,6.7 -6.5,29.1 z"
       id="path4539"

       fill="#f2d96f"
       inkscape:connector-curvature="0" /><circle

       fill="#f2d96f"
       cx="34.5"
       cy="15.3"
       r="1"
       id="circle4541" /><circle
       
       fill="#f2d96f"
       cx="34.5"
       cy="25.9"
       r="1"
       id="circle4543" /><circle

       fill="#f2d96f"
       cx="34.5"
       cy="37.099998"
       r="1"
       id="circle4545" /><circle

       fill="#f2d96f"
       cx="42.400002"
       cy="15.3"
       r="1"
       id="circle4547" /><circle

       fill="#f2d96f"
       cx="42.400002"
       cy="25.9"
       r="1"
       id="circle4549" /><circle

       fill="#f2d96f"
       cx="42.400002"
       cy="37.099998"
       r="1"
       id="circle4551" /><circle

       fill="#f2d96f"
       cx="57.5"
       cy="15.3"
       r="1"
       id="circle4553" /><circle

       fill="#f2d96f"
       cx="57.5"
       cy="25.9"
       r="1"
       id="circle4555" /><circle

       fill="#f2d96f"
       cx="57.5"
       cy="37.099998"
       r="1"
       id="circle4557" /><circle

       fill="#f2d96f"
       cx="49.599998"
       cy="15.3"
       r="1"
       id="circle4559" /><circle

       fill="#f2d96f"
       cx="49.599998"
       cy="25.9"
       r="1"
       id="circle4561" /><circle

       fill="#f2d96f"
       cx="49.599998"
       cy="37.099998"
       r="1"
       id="circle4563" /></g></svg>
