<?xml version="1.0" encoding="UTF-8" standalone="no"?>
<svg
   xmlns:dc="http://purl.org/dc/elements/1.1/"
   xmlns:cc="http://creativecommons.org/ns#"
   xmlns:rdf="http://www.w3.org/1999/02/22-rdf-syntax-ns#"
   xmlns:svg="http://www.w3.org/2000/svg"
   xmlns="http://www.w3.org/2000/svg"
   xmlns:sodipodi="http://sodipodi.sourceforge.net/DTD/sodipodi-0.dtd"
   xmlns:inkscape="http://www.inkscape.org/namespaces/inkscape"
   version="1.1"
   x="0px"
   y="0px"
   viewBox="0 0 80 80"
   xml:space="preserve"
   id="svg5783"
   inkscape:version="0.91 r13725"
   sodipodi:docname="tweeter.svg"
   width="80"
   height="80"><metadata
     id="metadata5831"><rdf:RDF><cc:Work
         rdf:about=""><dc:format>image/svg+xml</dc:format><dc:type
           rdf:resource="http://purl.org/dc/dcmitype/StillImage" /><dc:title></dc:title></cc:Work></rdf:RDF></metadata><defs
     id="defs5829" /><sodipodi:namedview
     pagecolor="#ffffff"
     bordercolor="#666666"
     borderopacity="1"
     objecttolerance="10"
     gridtolerance="10"
     guidetolerance="10"
     inkscape:pageopacity="0"
     inkscape:pageshadow="2"
     inkscape:window-width="664"
     inkscape:window-height="480"
     id="namedview5827"
     showgrid="false"
     inkscape:zoom="0.944"
     inkscape:cx="100"
     inkscape:cy="34.01547"
     inkscape:window-x="0"
     inkscape:window-y="0"
     inkscape:window-maximized="0"
     inkscape:current-layer="svg5783" /><style
     type="text/css"
     id="style5785">
	.st0{fill:none;stroke:#010202;stroke-width:5.1187;stroke-linecap:square;stroke-miterlimit:10;}
	.st1{fill:#010202;}
	.st2{fill:none;stroke:#010202;stroke-width:5.1187;stroke-miterlimit:10;}
</style><g
     id="g5787"
     transform="matrix(0.61671795,0,0,0.80639023,-20.556615,-38.055514)"
     style="fill:#daecf3;fill-opacity:1"><g
       id="g5789"
       style="fill:#daecf3;fill-opacity:1"><g
         id="g5791"
         style="fill:#daecf3;fill-opacity:1"><path
           class="st1"
           d="m 107.3,115.4 -2.5,-4.5 2.2,-1.3 c 8.8,-5 14.3,-14.3 14.4,-24.4 l 0,-2.6 5.1,0.1 0,2.6 c -0.1,11.9 -6.7,22.9 -17,28.8 l -2.2,1.3 z"
           id="path5793"
           inkscape:connector-curvature="0"
           style="fill:#daecf3;fill-opacity:1" /></g><g
         id="g5795"
         style="fill:#daecf3;fill-opacity:1"><path
           class="st1"
           d="m 100.6,87.4 0,-2.6 c 0,-4.8 -1.9,-9.3 -5.3,-12.6 -3.4,-3.4 -7.9,-5.2 -12.7,-5.1 -9.2,0.1 -16.8,7 -17.7,16.2 l -0.2,2.5 -5.1,-0.5 0.2,-2.5 C 60.9,71.1 70.6,62.1 82.5,62 c 6.1,0 11.9,2.3 16.3,6.6 4.4,4.3 6.8,10.1 6.9,16.2 l 0,2.6 -5.1,0 z"
           id="path5797"
           inkscape:connector-curvature="0"
           style="fill:#daecf3;fill-opacity:1" /></g><g
         id="g5799"
         style="fill:#daecf3;fill-opacity:1"><path
           class="st1"
           d="M 103.1,128.5 C 79.1,128.5 59.6,109 59.6,85 l 5.1,0 c 0,21.2 17.2,38.4 38.4,38.4 20.3,0 37,-15.8 38.3,-35.8 l -30.9,-0.1 0,-5.1 36.1,0.1 0,2.5 c 0,24 -19.5,43.5 -43.5,43.5 z"
           id="path5801"
           inkscape:connector-curvature="0"
           style="fill:#daecf3;fill-opacity:1" /></g></g></g><g
     id="g5803"
     transform="matrix(0.61671795,0,0,0.80639023,-20.556615,-38.055514)"
     style="fill:#daecf3;fill-opacity:1"><rect
       x="55.5"
       y="74.199997"
       transform="matrix(0.7071,-0.7071,0.7071,0.7071,-39.0807,64.3061)"
       class="st1"
       width="5.0999999"
       height="10.2"
       id="rect5805"
       style="fill:#daecf3;fill-opacity:1" /></g><g
     id="g5807"
     transform="matrix(0.61671795,0,0,0.80639023,-20.556615,-38.055514)"
     style="fill:#daecf3;fill-opacity:1"><rect
       x="55.5"
       y="85.099998"
       transform="matrix(0.7071,0.7071,-0.7071,0.7071,80.7836,-14.6567)"
       class="st1"
       width="5.0999999"
       height="10.2"
       id="rect5809"
       style="fill:#daecf3;fill-opacity:1" /></g><g
     id="g5811"
     transform="matrix(0.61671795,0,0,0.80639023,-20.556615,-38.055514)"
     style="fill:#daecf3;fill-opacity:1"><circle
       class="st1"
       cx="74.400002"
       cy="84.800003"
       r="2.5999999"
       id="circle5813"
       style="fill:#daecf3;fill-opacity:1" /></g><g
     id="g5815"
     transform="matrix(0.61671795,0,0,0.80639023,-20.556615,-38.055514)"
     style="fill:#daecf3;fill-opacity:1"><rect
       x="95.5"
       y="125.8"
       class="st1"
       width="5.0999999"
       height="12.8"
       id="rect5817"
       style="fill:#daecf3;fill-opacity:1" /></g><g
     id="g5819"
     transform="matrix(0.61671795,0,0,0.80639023,-20.556615,-38.055514)"
     style="fill:#daecf3;fill-opacity:1"><rect
       x="105.7"
       y="125.8"
       class="st1"
       width="5.0999999"
       height="12.8"
       id="rect5821"
       style="fill:#daecf3;fill-opacity:1" /></g></svg>